<svg xmlns="http://www.w3.org/2000/svg" width="1920" height="1120" viewBox="0 0 1920 1120" font-family="Segoe UI, Arial, sans-serif">
<defs>
  <marker id="head" viewBox="0 0 10 10" refX="9" refY="5" markerWidth="8" markerHeight="8" orient="auto-start-reverse"><path d="M0,0 L10,5 L0,10 z" fill="#374151"/></marker>
  <marker id="headT" viewBox="0 0 10 10" refX="9" refY="5" markerWidth="8" markerHeight="8" orient="auto-start-reverse"><path d="M0,0 L10,5 L0,10 z" fill="#16907f"/></marker>
</defs>
<rect width="1920" height="1120" fill="#ffffff"/>
<text x="40" y="50" font-size="30" font-weight="800" fill="#10201c">Manganese Prospectivity &amp; MOIL Production Intelligence</text>
<text x="40" y="80" font-size="16" fill="#55605e">End-to-end system workflow · SIH26009</text>
<rect x="330" y="95" width="1170" height="128" rx="12" fill="#ecf8ef" stroke="#2f9a52" stroke-width="2" stroke-dasharray="8 6"/>
<text x="346" y="119" font-size="13" font-weight="800" letter-spacing="0.8" fill="#2f9a52">OFFLINE DATA PIPELINE</text>
<text x="1484" y="119" text-anchor="end" font-size="13" font-style="italic" fill="#4a5553">trained once, before serving</text>
<rect x="330" y="262" width="360" height="612" rx="12" fill="#ddedfb" stroke="#3f8fd6" stroke-width="2" />
<path d="M330,306 V274 Q330,262 342,262 H678 Q690,262 690,274 V306 Z" fill="#c2dcf5" stroke="#3f8fd6" stroke-width="2"/>
<text x="510" y="281" text-anchor="middle" font-size="13" font-weight="800" letter-spacing="0.8" fill="#3f8fd6">PROSPECTIVITY ENGINE</text>
<text x="510" y="298" text-anchor="middle" font-size="12.5" font-style="italic" fill="#3f4a48">Where is manganese?</text>
<rect x="730" y="262" width="360" height="612" rx="12" fill="#fff4d4" stroke="#b8860b" stroke-width="2" />
<path d="M730,306 V274 Q730,262 742,262 H1078 Q1090,262 1090,274 V306 Z" fill="#fbe6a8" stroke="#b8860b" stroke-width="2"/>
<text x="910" y="281" text-anchor="middle" font-size="13" font-weight="800" letter-spacing="0.8" fill="#b8860b">FORECASTING ENGINE</text>
<text x="910" y="298" text-anchor="middle" font-size="12.5" font-style="italic" fill="#3f4a48">How much will we produce?</text>
<rect x="1130" y="262" width="360" height="612" rx="12" fill="#eee2f9" stroke="#8558c7" stroke-width="2" />
<path d="M1130,306 V274 Q1130,262 1142,262 H1478 Q1490,262 1490,274 V306 Z" fill="#dcc8f3" stroke="#8558c7" stroke-width="2"/>
<text x="1310" y="281" text-anchor="middle" font-size="13" font-weight="800" letter-spacing="0.8" fill="#8558c7">SHORTFALL RISK &amp; ACTIONS</text>
<text x="1310" y="298" text-anchor="middle" font-size="12.5" font-style="italic" fill="#3f4a48">Will we fall short?</text>
<rect x="40" y="100" width="235" height="200" rx="9" fill="#f9d0c6" stroke="#e0533f" stroke-width="2"/>
<text x="157.5" y="157.5" text-anchor="middle" font-size="17" font-weight="700" fill="#14231f">Public Data Sources</text>
<text x="157.5" y="176.5" text-anchor="middle" font-size="13.5" font-weight="400" fill="#3b4644">Sentinel-2 satellite imagery</text>
<text x="157.5" y="195.5" text-anchor="middle" font-size="13.5" font-weight="400" fill="#3b4644">Copernicus elevation (DEM)</text>
<text x="157.5" y="214.5" text-anchor="middle" font-size="13.5" font-weight="400" fill="#3b4644">NGDR drill records</text>
<text x="157.5" y="233.5" text-anchor="middle" font-size="13.5" font-weight="400" fill="#3b4644">IBM MSMP production reports</text>
<text x="157.5" y="252.5" text-anchor="middle" font-size="13.5" font-weight="400" fill="#3b4644">Rainfall archive</text>
<rect x="355" y="135" width="250" height="70" rx="9" fill="#62d2c2" stroke="#16907f" stroke-width="2"/>
<text x="480" y="165.5" text-anchor="middle" font-size="17" font-weight="700" fill="#14231f">Ingest &amp; Clean</text>
<text x="480" y="184.5" text-anchor="middle" font-size="13.5" font-weight="400" fill="#3b4644">imagery · records · reports</text>
<rect x="640" y="135" width="250" height="70" rx="9" fill="#62d2c2" stroke="#16907f" stroke-width="2"/>
<text x="765" y="165.5" text-anchor="middle" font-size="17" font-weight="700" fill="#14231f">Mosaic &amp; Align</text>
<text x="765" y="184.5" text-anchor="middle" font-size="13.5" font-weight="400" fill="#3b4644">one 20 m grid</text>
<rect x="925" y="135" width="250" height="70" rx="9" fill="#62d2c2" stroke="#16907f" stroke-width="2"/>
<text x="1050" y="165.5" text-anchor="middle" font-size="17" font-weight="700" fill="#14231f">Extract 78 Features</text>
<text x="1050" y="184.5" text-anchor="middle" font-size="13.5" font-weight="400" fill="#3b4644">bands · terrain · indices · texture</text>
<rect x="1210" y="135" width="265" height="70" rx="9" fill="#62d2c2" stroke="#16907f" stroke-width="2"/>
<text x="1342.5" y="165.5" text-anchor="middle" font-size="17" font-weight="700" fill="#14231f">Train Models</text>
<text x="1342.5" y="184.5" text-anchor="middle" font-size="13.5" font-weight="400" fill="#3b4644">XGBoost · Prophet</text>
<path d="M275,170 L355,170" fill="none" stroke="#374151" stroke-width="2"  marker-end="url(#head)"/>
<path d="M605,170 L640,170" fill="none" stroke="#374151" stroke-width="2"  marker-end="url(#head)"/>
<path d="M890,170 L925,170" fill="none" stroke="#374151" stroke-width="2"  marker-end="url(#head)"/>
<path d="M1175,170 L1210,170" fill="none" stroke="#374151" stroke-width="2"  marker-end="url(#head)"/>
<rect x="1570" y="132" width="300" height="76" rx="9" fill="#d7cdf6" stroke="#6a4cc2" stroke-width="2"/>
<text x="1720" y="165.5" text-anchor="middle" font-size="17" font-weight="700" fill="#241552">FastAPI Backend</text>
<text x="1720" y="184.5" text-anchor="middle" font-size="13.5" font-weight="400" fill="#3b4644">26 endpoints · serves trained models</text>
<path d="M1475,170 L1570,170" fill="none" stroke="#374151" stroke-width="2"  marker-end="url(#head)"/>
<path d="M1720,208 L1720,244 L510,244" fill="none" stroke="#374151" stroke-width="2"  />
<path d="M510,244 L510,262" fill="none" stroke="#374151" stroke-width="2"  marker-end="url(#head)"/>
<path d="M910,244 L910,262" fill="none" stroke="#374151" stroke-width="2"  marker-end="url(#head)"/>
<path d="M1310,244 L1310,262" fill="none" stroke="#374151" stroke-width="2"  marker-end="url(#head)"/>
<path d="M510,306 L510,315" fill="none" stroke="#374151" stroke-width="2"  />
<path d="M910,306 L910,315" fill="none" stroke="#374151" stroke-width="2"  />
<path d="M1310,306 L1310,318" fill="none" stroke="#374151" stroke-width="2"  />
<rect x="1520" y="233" width="118" height="22" rx="5" fill="#fff" stroke="#cbd2d9"/><text x="1579" y="249" text-anchor="middle" font-size="13" font-weight="600" fill="#374151">API requests</text>
<polygon points="510,315 585,362 510,409 435,362" fill="#e3d3f8" stroke="#8558c7" stroke-width="2"/>
<text x="510" y="358" text-anchor="middle" font-size="15" font-weight="700" fill="#2c1a48">Imagery</text>
<text x="510" y="376" text-anchor="middle" font-size="15" font-weight="700" fill="#2c1a48">exists?</text>
<rect x="40" y="322" width="235" height="80" rx="9" fill="#ffffff" stroke="#8a9099" stroke-width="2"/>
<text x="157.5" y="348" text-anchor="middle" font-size="17" font-weight="700" fill="#14231f">No Data</text>
<text x="157.5" y="367" text-anchor="middle" font-size="13.5" font-weight="400" fill="#3b4644">not a zero score</text>
<text x="157.5" y="386" text-anchor="middle" font-size="13.5" font-weight="400" fill="#3b4644">“we do not know”</text>
<path d="M435,362 L275,362" fill="none" stroke="#374151" stroke-width="2"  marker-end="url(#head)"/>
<rect x="357.6" y="350" width="28.8" height="22" rx="5" fill="#ffffff" stroke="#cbd2d9" stroke-width="1"/>
<text x="372" y="366" text-anchor="middle" font-size="13" font-weight="600" fill="#374151">No</text>
<path d="M510,409 L510,442" fill="none" stroke="#374151" stroke-width="2"  marker-end="url(#head)"/>
<text x="522" y="432" font-size="13" font-weight="600" fill="#374151">Yes</text>
<rect x="360" y="442" width="300" height="68" rx="9" fill="#62d2c2" stroke="#16907f" stroke-width="2"/>
<text x="510" y="471.5" text-anchor="middle" font-size="17" font-weight="700" fill="#14231f">AI Model Scores</text>
<text x="510" y="490.5" text-anchor="middle" font-size="13.5" font-weight="400" fill="#3b4644">XGBoost · trained on 954 sites</text>
<path d="M510,510 L510,542" fill="none" stroke="#374151" stroke-width="2"  marker-end="url(#head)"/>
<rect x="360" y="542" width="300" height="68" rx="9" fill="#62d2c2" stroke="#16907f" stroke-width="2"/>
<text x="510" y="571.5" text-anchor="middle" font-size="17" font-weight="700" fill="#14231f">Apply Geology Mask</text>
<text x="510" y="590.5" text-anchor="middle" font-size="13.5" font-weight="400" fill="#3b4644">raw score kept for audit</text>
<path d="M510,610 L510,642" fill="none" stroke="#374151" stroke-width="2"  marker-end="url(#head)"/>
<rect x="360" y="642" width="300" height="68" rx="9" fill="#62d2c2" stroke="#16907f" stroke-width="2"/>
<text x="510" y="671.5" text-anchor="middle" font-size="17" font-weight="700" fill="#14231f">Score + Reasons</text>
<text x="510" y="690.5" text-anchor="middle" font-size="13.5" font-weight="400" fill="#3b4644">0 – 0.99 + top SHAP drivers</text>
<path d="M510,710 L510,742" fill="none" stroke="#374151" stroke-width="2"  marker-end="url(#head)"/>
<rect x="360" y="742" width="300" height="78" rx="9" fill="#62d2c2" stroke="#16907f" stroke-width="2"/>
<text x="510" y="767" text-anchor="middle" font-size="17" font-weight="700" fill="#14231f">Top 10 New Targets</text>
<text x="510" y="786" text-anchor="middle" font-size="13.5" font-weight="400" fill="#3b4644">GPS coordinates · ±348 m</text>
<text x="510" y="805" text-anchor="middle" font-size="13.5" font-weight="400" fill="#3b4644">outside known ground</text>
<rect x="40" y="533" width="250" height="86" rx="9" fill="#ffffff" stroke="#3f8fd6" stroke-width="1.8" stroke-dasharray="6 4"/>
<text x="165" y="562" text-anchor="middle" font-size="15" font-weight="700" fill="#1d4f82">Geology Masks</text>
<text x="165" y="581" text-anchor="middle" font-size="13" font-weight="400" fill="#3b4644">Precambrian basement</text>
<text x="165" y="600" text-anchor="middle" font-size="13" font-weight="400" fill="#3b4644">5 km occurrence buffer</text>
<path d="M290,576 L360,576" fill="none" stroke="#374151" stroke-width="2"  marker-end="url(#head)"/>
<rect x="40" y="636" width="250" height="80" rx="9" fill="#ffffff" stroke="#3f8fd6" stroke-width="1.8" stroke-dasharray="6 4"/>
<text x="165" y="662" text-anchor="middle" font-size="15" font-weight="700" fill="#1d4f82">Explainable AI</text>
<text x="165" y="681" text-anchor="middle" font-size="13" font-weight="400" fill="#3b4644">SHAP: why each place</text>
<text x="165" y="700" text-anchor="middle" font-size="13" font-weight="400" fill="#3b4644">scored the way it did</text>
<path d="M290,676 L360,676" fill="none" stroke="#374151" stroke-width="2"  marker-end="url(#head)"/>
<rect x="40" y="738" width="250" height="86" rx="9" fill="#ffffff" stroke="#3f8fd6" stroke-width="1.8" stroke-dasharray="6 4"/>
<text x="165" y="767" text-anchor="middle" font-size="15" font-weight="700" fill="#1d4f82">Greenfield Only</text>
<text x="165" y="786" text-anchor="middle" font-size="13" font-weight="400" fill="#3b4644">≥ 10 km apart</text>
<text x="165" y="805" text-anchor="middle" font-size="13" font-weight="400" fill="#3b4644">ranked by classifier margin</text>
<path d="M290,781 L360,781" fill="none" stroke="#374151" stroke-width="2"  marker-end="url(#head)"/>
<polygon points="910,315 985,362 910,409 835,362" fill="#e3d3f8" stroke="#8558c7" stroke-width="2"/>
<text x="910" y="358" text-anchor="middle" font-size="15" font-weight="700" fill="#2c1a48">Forecast</text>
<text x="910" y="376" text-anchor="middle" font-size="15" font-weight="700" fill="#2c1a48">horizon?</text>
<path d="M835,362 L820,362 L820,442" fill="none" stroke="#374151" stroke-width="2"  marker-end="url(#head)"/>
<rect x="756" y="396" width="88" height="22" rx="5" fill="#ffffff" stroke="#cbd2d9" stroke-width="1"/>
<text x="800" y="412" text-anchor="middle" font-size="13" font-weight="600" fill="#374151">1–6 months</text>
<path d="M985,362 L1000,362 L1000,442" fill="none" stroke="#374151" stroke-width="2"  marker-end="url(#head)"/>
<rect x="983.7" y="396" width="80.60000000000001" height="22" rx="5" fill="#ffffff" stroke="#cbd2d9" stroke-width="1"/>
<text x="1024" y="412" text-anchor="middle" font-size="13" font-weight="600" fill="#374151">12 months</text>
<rect x="745" y="442" width="150" height="78" rx="9" fill="#62d2c2" stroke="#16907f" stroke-width="2"/>
<text x="820" y="467" text-anchor="middle" font-size="17" font-weight="700" fill="#14231f">Seasonal</text>
<text x="820" y="486" text-anchor="middle" font-size="13.5" font-weight="400" fill="#3b4644">same month</text>
<text x="820" y="505" text-anchor="middle" font-size="13.5" font-weight="400" fill="#3b4644">last year</text>
<rect x="925" y="442" width="150" height="78" rx="9" fill="#62d2c2" stroke="#16907f" stroke-width="2"/>
<text x="1000" y="467" text-anchor="middle" font-size="17" font-weight="700" fill="#14231f">Prophet</text>
<text x="1000" y="486" text-anchor="middle" font-size="13.5" font-weight="400" fill="#3b4644">trend +</text>
<text x="1000" y="505" text-anchor="middle" font-size="13.5" font-weight="400" fill="#3b4644">seasonality</text>
<path d="M820,520 L820,562" fill="none" stroke="#374151" stroke-width="2"  marker-end="url(#head)"/>
<path d="M1000,520 L1000,562" fill="none" stroke="#374151" stroke-width="2"  marker-end="url(#head)"/>
<rect x="745" y="562" width="330" height="70" rx="9" fill="#62d2c2" stroke="#16907f" stroke-width="2"/>
<text x="910" y="592.5" text-anchor="middle" font-size="17" font-weight="700" fill="#14231f">Forecast + 80% Range</text>
<text x="910" y="611.5" text-anchor="middle" font-size="13.5" font-weight="400" fill="#3b4644">both models tested on 82 past months</text>
<path d="M910,632 L910,664" fill="none" stroke="#374151" stroke-width="2"  marker-end="url(#head)"/>
<rect x="760" y="664" width="300" height="68" rx="9" fill="#62d2c2" stroke="#16907f" stroke-width="2"/>
<text x="910" y="693.5" text-anchor="middle" font-size="17" font-weight="700" fill="#14231f">Model Used + Reason</text>
<text x="910" y="712.5" text-anchor="middle" font-size="13.5" font-weight="400" fill="#3b4644">the evidence picks the winner</text>
<rect x="1160" y="318" width="300" height="68" rx="9" fill="#f7c8ea" stroke="#c4479b" stroke-width="2"/>
<text x="1310" y="347.5" text-anchor="middle" font-size="17" font-weight="700" fill="#14231f">Inputs</text>
<text x="1310" y="366.5" text-anchor="middle" font-size="13.5" font-weight="400" fill="#3b4644">last month · rainfall · trend</text>
<path d="M1310,386 L1310,442" fill="none" stroke="#374151" stroke-width="2"  marker-end="url(#head)"/>
<rect x="1160" y="442" width="300" height="72" rx="9" fill="#f7c8ea" stroke="#c4479b" stroke-width="2"/>
<text x="1310" y="473.5" text-anchor="middle" font-size="17" font-weight="700" fill="#14231f">Shortfall Risk Model</text>
<text x="1310" y="492.5" text-anchor="middle" font-size="13.5" font-weight="400" fill="#3b4644">P(output &lt; 90% of forecast)</text>
<path d="M1075,612 L1110,612 L1110,470 L1160,470" fill="none" stroke="#374151" stroke-width="2"  marker-end="url(#head)"/>
<text transform="translate(1104,541) rotate(-90)" text-anchor="middle" font-size="12" font-weight="700" fill="#6b3fa8">forecast feeds risk</text>
<path d="M1310,514 L1310,546" fill="none" stroke="#374151" stroke-width="2"  marker-end="url(#head)"/>
<polygon points="1310,546 1385,593 1310,640 1235,593" fill="#e3d3f8" stroke="#8558c7" stroke-width="2"/>
<text x="1310" y="589" text-anchor="middle" font-size="15" font-weight="700" fill="#2c1a48">Risk</text>
<text x="1310" y="607" text-anchor="middle" font-size="15" font-weight="700" fill="#2c1a48">high?</text>
<path d="M1385,593 L1570,593" fill="none" stroke="#374151" stroke-width="2"  marker-end="url(#head)"/>
<rect x="1513.6" y="581" width="28.8" height="22" rx="5" fill="#ffffff" stroke="#cbd2d9" stroke-width="1"/>
<text x="1528" y="597" text-anchor="middle" font-size="13" font-weight="600" fill="#374151">No</text>
<rect x="1570" y="558" width="300" height="70" rx="9" fill="#ffffff" stroke="#8a9099" stroke-width="2"/>
<text x="1720" y="588.5" text-anchor="middle" font-size="17" font-weight="700" fill="#14231f">No Action Needed</text>
<text x="1720" y="607.5" text-anchor="middle" font-size="13.5" font-weight="400" fill="#3b4644">keep monitoring</text>
<path d="M1310,640 L1310,672" fill="none" stroke="#374151" stroke-width="2"  marker-end="url(#head)"/>
<text x="1322" y="662" font-size="13" font-weight="600" fill="#374151">Yes</text>
<rect x="1160" y="672" width="300" height="66" rx="9" fill="#f7c8ea" stroke="#c4479b" stroke-width="2"/>
<text x="1310" y="700.5" text-anchor="middle" font-size="17" font-weight="700" fill="#14231f">Rules Engine</text>
<text x="1310" y="719.5" text-anchor="middle" font-size="13.5" font-weight="400" fill="#3b4644">34 mining rules</text>
<path d="M1310,738 L1310,766" fill="none" stroke="#374151" stroke-width="2"  marker-end="url(#head)"/>
<rect x="1160" y="766" width="300" height="72" rx="9" fill="#f7c8ea" stroke="#c4479b" stroke-width="2"/>
<text x="1310" y="797.5" text-anchor="middle" font-size="17" font-weight="700" fill="#14231f">Recommended Action</text>
<text x="1310" y="816.5" text-anchor="middle" font-size="13.5" font-weight="400" fill="#3b4644">with SHAP evidence</text>
<polygon points="1720,752 1805,802 1720,852 1635,802" fill="#e3d3f8" stroke="#8558c7" stroke-width="2"/>
<text x="1720" y="798" text-anchor="middle" font-size="15" font-weight="700" fill="#2c1a48">Human</text>
<text x="1720" y="816" text-anchor="middle" font-size="15" font-weight="700" fill="#2c1a48">Review</text>
<path d="M1460,802 L1635,802" fill="none" stroke="#374151" stroke-width="2"  marker-end="url(#head)"/>
<path d="M1720,852 L1720,905" fill="none" stroke="#374151" stroke-width="2"  marker-end="url(#head)"/>
<rect x="1570" y="905" width="300" height="72" rx="9" fill="#c8f0ea" stroke="#16907f" stroke-width="2"/>
<text x="1720" y="936.5" text-anchor="middle" font-size="17" font-weight="700" fill="#14231f">Decision Recorded</text>
<text x="1720" y="955.5" text-anchor="middle" font-size="13.5" font-weight="400" fill="#3b4644">approve / reject · audit trail</text>
<rect x="330" y="922" width="760" height="76" rx="9" fill="#fde6a2" stroke="#d29c12" stroke-width="2"/>
<text x="710" y="955.5" text-anchor="middle" font-size="17" font-weight="700" fill="#14231f">Next.js Dashboard</text>
<text x="710" y="974.5" text-anchor="middle" font-size="13.5" font-weight="400" fill="#3b4644">Map Explorer · Mine Fleet · Production &amp; Risk · Corrective Actions</text>
<path d="M510,820 L510,922" fill="none" stroke="#374151" stroke-width="2"  marker-end="url(#head)"/>
<path d="M910,732 L910,922" fill="none" stroke="#374151" stroke-width="2"  marker-end="url(#head)"/>
<path d="M1720,977 L1720,1048 L18,1048 L18,200 L40,200" fill="none" stroke="#16907f" stroke-width="2.2" stroke-dasharray="9 6" marker-end="url(#headT)"/>
<rect x="725.8" y="1036" width="428.40000000000003" height="22" rx="5" fill="#ffffff" stroke="#16907f" stroke-width="1"/>
<text x="940" y="1052" text-anchor="middle" font-size="13" font-weight="600" fill="#0f6f62">next month’s actual production  →  retrain &amp; re-forecast</text>
<path d="M1870,593 L1896,593 L1896,1048 L1720,1048" fill="none" stroke="#16907f" stroke-width="2.2" stroke-dasharray="9 6" />
<path d="M1180,1094 L1230,1094" stroke="#374151" stroke-width="2" marker-end="url(#head)"/><text x="1242" y="1099" font-size="13" fill="#374151">data flow</text>
<path d="M1340,1094 L1390,1094" stroke="#16907f" stroke-width="2.2" stroke-dasharray="9 6" marker-end="url(#headT)"/><text x="1402" y="1099" font-size="13" fill="#374151">feedback loop</text>
<polygon points="1535,1083 1553,1094 1535,1105 1517,1094" fill="#e3d3f8" stroke="#8558c7" stroke-width="1.5"/><text x="1563" y="1099" font-size="13" fill="#374151">decision</text>
<rect x="1650" y="1084" width="30" height="20" rx="4" fill="#f7c8ea" stroke="#c4479b" stroke-width="1.5"/><text x="1690" y="1099" font-size="13" fill="#374151">risk &amp; action step</text>
</svg>